<?xml version="1.0" encoding="UTF-8"?><svg id="Layer_1" xmlns="http://www.w3.org/2000/svg" width="26.84mm" height="5.44mm" viewBox="0 0 76.09 15.43"><defs><style>.cls-1{fill:#231f20;}.cls-2{fill:#28b893;}</style></defs><g><path class="cls-1" d="M3.72,6.37c.8,0,1.36,0,1.87-.04,.38-.02,.48-.02,.54-.02,.23,0,.26,.02,.28,.25,.02,.35,.04,.7,.04,1.15,0,.28-.01,.55-.02,.78-.01,.11-.04,.14-.1,.14-.05,0-.1-.02-.11-.12-.2-1.18-.72-1.93-1.98-1.93h-.95c-.2,0-.28,.05-.28,.35v3.83h.72c1.1,0,1.83-.14,2-1.18,.01-.06,.05-.08,.08-.08s.08,.02,.08,.1,0,.14-.01,.46c-.01,.29-.02,.8-.02,1.02s.01,.64,.02,.86v.26c.01,.07-.02,.11-.07,.11-.04,0-.07-.02-.08-.1-.18-1.08-.88-1.19-2-1.19h-.72v3.25c0,.58,.07,.71,.56,.74,.42,.04,.86,.05,1,.05,.08,0,.12,.06,.12,.12s-.04,.12-.12,.12c-.04,0-.16,0-.42-.01-.74-.04-1.24-.05-1.92-.05s-.96,.01-1.55,.05c-.25,.01-.4,.01-.44,.01-.07,0-.12-.06-.12-.12s.05-.12,.12-.12c1.18-.04,1.2-.11,1.2-.79V7.88c0-1.22-.1-1.26-1.33-1.33-.07,0-.11-.06-.11-.12s.04-.12,.12-.12,.54,.01,.98,.04c.37,.01,.83,.02,1.26,.02h1.36Z"/><path class="cls-1" d="M12.44,14.1c0,.6,.18,.68,.42,.68,.29,0,.48-.25,.68-1,.02-.07,.05-.11,.12-.11,.06,0,.1,.05,.1,.11v.08c-.22,.95-.68,1.44-1.61,1.44-.65,0-1.09-.36-1.09-1.15h-.08c-.3,.9-1.03,1.26-1.96,1.26s-1.7-.44-1.7-1.42c0-1.13,1.07-1.73,3.62-1.98v-1.16c0-1.33-.59-1.68-1.26-1.68-.72,0-1.13,.46-1.13,.71,0,.1,.05,.13,.16,.16,.22,.05,.54,.19,.54,.66,0,.31-.28,.7-.82,.7-.4,0-.73-.3-.73-.78,0-.94,1.15-1.73,2.36-1.73,1.49,0,2.38,.8,2.38,2.58v2.63Zm-1.5-1.86c-1.51,.13-2.19,.66-2.19,1.66,0,.54,.35,.98,.94,.98,.71,0,1.26-.59,1.26-1.54v-1.1Z"/><path class="cls-1" d="M18.49,9.37c-.05,.37-.07,.85-.07,1.38,0,.1-.06,.13-.12,.13s-.12-.04-.12-.1c-.07-.84-.5-1.66-1.51-1.66-.68,0-1.09,.54-1.09,1.1,0,.84,.75,1.1,1.56,1.38,.89,.31,1.82,.64,1.82,1.8s-1.03,2-2.35,2c-.67,0-1.16-.1-1.75-.42-.07-.04-.12-.06-.18-.06-.1,0-.13,.1-.19,.36-.02,.08-.07,.12-.13,.12-.05,0-.11-.04-.11-.11,0-.02,.01-.1,.04-.24,.1-.56,.17-1.22,.17-2.12,0-.08,.06-.12,.12-.12s.12,.04,.12,.11c.14,1.83,1.07,2.24,1.97,2.24,.76,0,1.15-.5,1.15-1.09,0-.74-.67-.98-1.42-1.25-.89-.31-1.88-.66-1.88-1.98,0-1.18,.96-1.97,2.27-1.97,.36,0,.65,.1,.88,.18,.2,.07,.34,.12,.47,.12,.11,0,.18-.08,.24-.19,.02-.04,.05-.05,.08-.05,.05,0,.08,.04,.08,.08l-.04,.34Z"/><path class="cls-1" d="M26.6,14.2c0,.84,.06,.86,.79,.86,.08,0,.12,.06,.12,.12s-.04,.12-.12,.12c-.17,0-.47-.01-.78-.04-.29-.02-.59-.02-.77-.02-.19,0-.49,0-.78,.02-.3,.02-.61,.04-.76,.04-.1,0-.14-.06-.14-.12s.05-.12,.14-.12c.72,0,.78-.02,.78-.86v-3.09c0-1.26-.44-1.82-1.31-1.82-.79,0-1.45,.79-1.45,1.95v2.96c0,.83,.04,.86,.89,.86,.1,0,.13,.06,.13,.12s-.04,.12-.13,.12c-.11,0-.46-.01-.8-.04-.32-.01-.66-.02-.84-.02s-.48,.01-.78,.02c-.3,.02-.59,.04-.86,.04-.08,0-.13-.06-.13-.12s.05-.12,.13-.12c.84,0,.89-.02,.89-.86V7.04c0-1.09-.04-1.13-.59-1.13h-.1c-.08,0-.13-.06-.13-.12s.05-.12,.13-.12c1.05-.07,1.38-.17,1.99-.44,.04-.02,.08-.04,.11-.04,.1,0,.14,.06,.14,.14,0,.05,0,.12-.02,.52-.02,.29-.04,.71-.04,1.35v1.44c0,.6-.05,1.2-.23,1.99h.07c.2-1.13,1.01-1.75,2.29-1.75s2.15,.76,2.15,2.17v3.14Z"/><path class="cls-1" d="M28.57,9.37c-.08,0-.13-.06-.13-.12s.05-.12,.13-.12c.95,0,1.58-.06,2.01-.14,.04-.01,.1-.02,.13-.02,.07,0,.13,.05,.13,.14,0,.05,0,.06-.02,.25-.02,.16-.07,.67-.07,1.28v3.51c0,.83,.04,.86,.86,.91,.1,0,.14,.06,.14,.12s-.05,.12-.14,.12c-.11,0-.42-.01-.77-.04-.32-.01-.67-.02-.85-.02-.19,0-.5,.01-.8,.02-.34,.02-.66,.04-.84,.04-.08,0-.12-.06-.12-.12s.04-.12,.12-.12c.84-.05,.89-.07,.89-.91v-3.78c0-.88-.02-1.01-.47-1.01h-.2Zm2.36-2.75c0,.48-.4,.89-.88,.89-.5,0-.9-.41-.9-.89s.4-.89,.9-.89,.88,.41,.88,.89Z"/><path class="cls-1" d="M39.04,12.17c0,1.97-1.69,3.26-3.19,3.26s-3.19-1.3-3.19-3.26,1.69-3.27,3.19-3.27,3.19,1.32,3.19,3.27Zm-1.64,0c0-.55-.05-1.45-.35-2.15-.2-.44-.59-.89-1.2-.89s-1,.44-1.2,.89c-.3,.7-.35,1.6-.35,2.15s.05,1.44,.35,2.13c.2,.44,.59,.89,1.2,.89s1-.44,1.2-.89c.3-.7,.35-1.58,.35-2.13Z"/><path class="cls-1" d="M46.52,14.2c0,.82,.06,.82,.79,.86,.08,0,.13,.06,.13,.12s-.05,.12-.13,.12c-.16,0-.47-.01-.78-.04-.29-.02-.59-.02-.77-.02s-.48,0-.78,.02-.6,.04-.76,.04c-.08,0-.13-.06-.13-.12s.05-.12,.13-.12c.72-.05,.78-.05,.78-.86v-3.09c0-1.26-.44-1.82-1.31-1.82-.79,0-1.45,.79-1.45,1.95v2.96c0,.8,.02,.82,.89,.86,.1,0,.13,.06,.13,.12s-.04,.12-.13,.12c-.11,0-.46-.01-.82-.04-.32-.01-.65-.02-.83-.02s-.48,.01-.77,.02c-.31,.02-.61,.04-.77,.04-.08,0-.13-.06-.13-.12s.05-.12,.13-.12c.72-.05,.78-.05,.78-.86v-3.83c0-.88-.02-1.01-.47-1.01h-.2c-.08,0-.13-.06-.13-.12s.05-.12,.13-.12c.95,0,1.5-.04,1.92-.2,.04-.01,.07-.02,.11-.02,.07,0,.13,.05,.13,.13,0,.05-.04,.25-.07,.41-.06,.29-.11,.74-.14,1.2h.07c.2-1.13,1.01-1.75,2.29-1.75s2.15,.76,2.15,2.17v3.14Z"/></g><path class="cls-2" d="M61.41,15.31h-6.13v-6.9c-.85,0-1.37,.1-1.57,.29-.2,.2-.3,.7-.3,1.52v5.09h-5.69v-4.04c0-1.24,.05-1.99,.15-2.26,.1-.27,.36-.57,.78-.9,.42-.33,1.23-.59,2.45-.78-1.34-.08-2.24-.33-2.69-.74-.46-.41-.68-1.21-.68-2.4,0-1.31,.32-2.26,.97-2.85,.65-.6,1.48-.97,2.51-1.11,1.02-.14,2.98-.22,5.88-.22h4.34V15.31Zm-7.6-12.46c-.27,.15-.4,.47-.4,.96v.84c0,.67,.14,1.07,.42,1.2,.28,.12,.76,.18,1.45,.18V2.62c-.71,0-1.2,.08-1.46,.23Z"/><g><path class="cls-1" d="M69.64,8.42c0-1.08-.1-1.82-1.51-1.87-.07,0-.12-.06-.12-.12s.05-.12,.12-.12c.06,0,.14,0,.28,.01,.5,.04,.84,.05,1.35,.05,.34,0,.59-.01,.94-.04,.36-.02,.38-.02,.44-.02,.08,0,.12,.06,.12,.12,0,.05-.04,.12-.12,.12-1.18,.05-1.2,.79-1.2,1.87v3.49c0,2.27-1.12,3.51-3.14,3.51-2.54,0-3.83-1.26-3.83-3.56V7.34c0-.72-.02-.74-1.2-.79-.07,0-.12-.05-.12-.12,0-.06,.04-.12,.12-.12,.05,0,.13,0,.38,.01,.47,.02,1.12,.05,1.6,.05s1.21-.01,1.85-.05c.25-.01,.34-.01,.38-.01,.08,0,.12,.06,.12,.12,0,.07-.05,.12-.12,.12-1.42,.05-1.45,.07-1.45,.79v4.67c0,1.98,.77,3.12,2.38,3.12,1.71,0,2.73-1.14,2.73-3.12v-3.59Z"/><path class="cls-1" d="M75.63,9.37c-.05,.37-.07,.85-.07,1.38,0,.1-.06,.13-.12,.13s-.12-.04-.12-.1c-.07-.84-.5-1.66-1.51-1.66-.68,0-1.09,.54-1.09,1.1,0,.84,.76,1.1,1.56,1.38,.89,.31,1.82,.64,1.82,1.8s-1.03,2-2.35,2c-.67,0-1.16-.1-1.75-.42-.07-.04-.12-.06-.18-.06-.1,0-.13,.1-.19,.36-.02,.08-.07,.12-.13,.12-.05,0-.11-.04-.11-.11,0-.02,.01-.1,.04-.24,.1-.56,.17-1.22,.17-2.12,0-.08,.06-.12,.12-.12s.12,.04,.12,.11c.14,1.83,1.07,2.24,1.97,2.24,.75,0,1.15-.5,1.15-1.09,0-.74-.67-.98-1.42-1.25-.89-.31-1.88-.66-1.88-1.98,0-1.18,.96-1.97,2.27-1.97,.36,0,.65,.1,.88,.18,.2,.07,.34,.12,.47,.12,.11,0,.18-.08,.24-.19,.02-.04,.05-.05,.08-.05,.05,0,.08,.04,.08,.08l-.04,.34Z"/></g></svg>