<?xml version="1.0" encoding="UTF-8"?><svg id="Layer_1" xmlns="http://www.w3.org/2000/svg" width="26.2mm" height="5.41mm" viewBox="0 0 74.26 15.34"><defs><style>.cls-1{fill:#bfa66b;}.cls-2{fill:#231f20;}</style></defs><g><path class="cls-2" d="M0,6.93H6.18v1.79H2.37v1.61h3.56v1.8H2.37v3.06H0V6.93Z"/><path class="cls-2" d="M12.74,13.32c0,.71,.04,1.65,.08,1.87h-2.16c-.05-.13-.09-.43-.1-.58-.3,.39-.76,.73-1.77,.73-1.41,0-2.17-.89-2.17-2,0-1.48,1.18-2.12,3.1-2.12h.77v-.35c0-.4-.14-.7-.71-.7-.53,0-.67,.24-.72,.65h-2.16c.08-1.05,.71-2.08,2.94-2.07,2.06,0,2.9,.8,2.9,2.32v2.26Zm-2.25-.92h-.52c-.81,0-1.07,.28-1.07,.75,0,.37,.22,.67,.68,.67,.79,0,.9-.54,.9-1.22v-.19Z"/><path class="cls-2" d="M15.83,13.25c.1,.4,.43,.62,.94,.62,.46,0,.66-.14,.66-.43,0-.31-.28-.42-1.1-.61-2.17-.49-2.48-1.2-2.48-2.09s.64-1.99,2.79-1.99,2.79,1.05,2.85,1.94h-2.09c-.05-.22-.18-.54-.82-.54-.42,0-.57,.17-.57,.39,0,.25,.21,.35,1.23,.58,2,.45,2.44,1.15,2.44,2.14,0,1.12-.82,2.09-2.97,2.09s-2.91-.98-3.04-2.09h2.17Z"/><path class="cls-2" d="M22.97,6.5v3.06c.31-.38,.84-.81,1.78-.81,1.3,0,2.07,.82,2.07,2.37v4.06h-2.33v-3.78c0-.63-.2-.94-.72-.94-.7,0-.8,.55-.8,1.32v3.41h-2.34V6.5h2.34Z"/><path class="cls-2" d="M28.14,6.5h2.34v1.63h-2.34v-1.63Zm0,2.4h2.34v6.29h-2.34v-6.29Z"/><path class="cls-2" d="M38.25,12.04c0,1.96-1.22,3.3-3.38,3.3s-3.33-1.46-3.33-3.28,1.15-3.31,3.41-3.31c2.07,0,3.31,1.38,3.31,3.29Zm-4.32,.01c0,1.2,.35,1.72,.98,1.72s.95-.53,.95-1.7c0-1.3-.33-1.74-.96-1.74-.58,0-.97,.42-.97,1.72Z"/><path class="cls-2" d="M39.3,10.53c0-.54,0-1.13-.02-1.63h2.28c.04,.16,.06,.51,.07,.69,.24-.36,.76-.85,1.79-.85,1.26,0,2.05,.85,2.05,2.39v4.05h-2.33v-3.78c0-.61-.17-.95-.71-.95-.49,0-.79,.26-.79,1.14v3.59h-2.34v-4.66Z"/></g><path class="cls-1" d="M59.57,15.31h-6.13v-6.9c-.84,0-1.37,.1-1.57,.29s-.3,.7-.3,1.52v5.09h-5.7v-4.04c0-1.24,.05-1.99,.15-2.26,.1-.27,.36-.57,.78-.9,.42-.33,1.23-.59,2.45-.78-1.34-.08-2.24-.33-2.69-.74-.46-.41-.68-1.21-.68-2.4,0-1.31,.32-2.26,.97-2.85,.65-.6,1.48-.97,2.5-1.11,1.03-.14,2.98-.22,5.88-.22h4.34V15.31Zm-7.6-12.46c-.27,.15-.4,.47-.4,.96v.84c0,.67,.14,1.07,.42,1.2,.28,.12,.76,.18,1.45,.18V2.62c-.71,0-1.2,.08-1.46,.23Z"/><g><path class="cls-2" d="M62.36,6.93v5.08c0,1.18,.58,1.59,1.32,1.59,.79,0,1.26-.48,1.26-1.59V6.93h2.43v4.83c0,2.75-1.62,3.58-3.73,3.58s-3.7-.88-3.7-3.57V6.93h2.42Z"/><path class="cls-2" d="M70.42,13.25c.1,.4,.43,.62,.94,.62,.46,0,.66-.14,.66-.43,0-.31-.28-.42-1.1-.61-2.17-.49-2.48-1.2-2.48-2.09s.64-1.99,2.79-1.99,2.79,1.05,2.85,1.94h-2.09c-.05-.22-.18-.54-.82-.54-.42,0-.57,.17-.57,.39,0,.25,.21,.35,1.23,.58,2,.45,2.44,1.15,2.44,2.14,0,1.12-.82,2.09-2.97,2.09s-2.91-.98-3.04-2.09h2.17Z"/></g></svg>